<svg xmlns="http://www.w3.org/2000/svg" viewBox="0 0 64 64" role="img" aria-labelledby="whatsapp-logo-title">
  <title id="whatsapp-logo-title">WhatsApp</title>
  <rect x="6" y="6" width="52" height="52" rx="16" fill="#0B1120"/>
  <circle cx="32" cy="30" r="14" fill="#16A34A"/>
  <path
    d="M26.5 24.5c.4-1 1-1.1 1.7-1.1.4 0 .9 0 1.3.9.5 1 .9 1.6 1 1.7.1.2.2.4 0 .7-.2.3-.3.5-.6.8-.3.2-.6.5-.3 1 .4.7 1.1 1.5 2.1 2.3 1.4 1 2.6 1.4 3.3 1.6.3.1.6.1.8-.1.2-.3.9-1 .9-1.3 0-.3.1-.4 0-.7-.1-.3-.5-.4-1.1-.6-.6-.2-1.6-.5-1.8-.9-.2-.4-.2-.8 0-1 .2-.3.6-.7.9-1 .2-.2.3-.4.4-.7.1-.2.1-.6 0-.8-.1-.2-1-2.5-1.4-3.3-.4-.8-.7-.7-1-.8h-1.7c-.3 0-.8.1-1.3.5-.4.4-1.3 1.2-1.3 2.9 0 1.7 1.1 3.3 1.2 3.5.1.2 2.2 3.5 5.4 4.8.7.3 1.3.5 1.7.6.7.2 1.3.2 1.8.1.6-.1 1.9-.8 2.2-1.6.3-.8.3-1.4.2-1.6-.1-.2-.2-.2-.5-.3"
    fill="#ECFDF5"
    stroke="#ECFDF5"
    stroke-width="0.5"
    stroke-linecap="round"
    stroke-linejoin="round"
  />
</svg>

